<svg xmlns="http://www.w3.org/2000/svg" fill="none" viewBox="0 0 64 65">
    <path fill="#EFF1F3" d="M60 24.261h-8v-3c0-.55-.45-1-1-1H32v-2h11c.55 0 1-.45 1-1v-14c0-.55-.45-1-1-1H19c-.55 0-1 .45-1 1v14c0 .55.45 1 1 1h11v2H11c-.55 0-1 .45-1 1v3H4c-.55 0-1 .45-1 1v8c0 .55.45 1 1 1h6v2H4c-.55 0-1 .45-1 1v8c0 .55.45 1 1 1h6v7c0 .55.45 1 1 1h11.59l7.7 7.71c.2.19.45.29.71.29.26 0 .51-.1.71-.29l7.7-7.71H51c.55 0 1-.45 1-1v-14h8c.55 0 1-.45 1-1v-13c0-.55-.45-1-1-1Zm-55 8v-6h12v6H5Zm0 12v-6h12v6H5Zm25-18.91c-2.83.48-5 2.94-5 5.91s2.17 5.43 5 5.91v7.68l-7.41 7.41H12v-6h6c.55 0 1-.45 1-1v-8c0-.55-.45-1-1-1h-6v-2h6c.55 0 1-.45 1-1v-8c0-.55-.45-1-1-1h-6v-2h18v3.09Zm5.29-17.38c-.39-.39-.39-1.03 0-1.42.39-.39 1.03-.39 1.42 0l3 3c.39.39.39 1.03 0 1.42l-3 3c-.2.19-.45.29-.71.29-.26 0-.51-.1-.71-.29-.39-.39-.39-1.03 0-1.42l2.3-2.29-2.3-2.29Zm-8.58 4.58c.39.39.39 1.03 0 1.42-.2.19-.45.29-.71.29-.26 0-.51-.1-.71-.29l-3-3c-.39-.39-.39-1.03 0-1.42l3-3c.39-.39 1.03-.39 1.42 0 .39.39.39 1.03 0 1.42l-2.3 2.29 2.3 2.29Zm3.18 1.16c-.17.35-.52.55-.89.55-.15 0-.3-.03-.45-.11a.993.993 0 0 1-.44-1.34l3-6c.24-.49.84-.69 1.34-.44.49.24.69.84.44 1.34l-3 6ZM50 52.261H39.41L32 44.851v-7.68c2.83-.48 5-2.94 5-5.91s-2.17-5.43-5-5.91v-3.09h18v2h-8c-.55 0-1 .45-1 1v13c0 .55.45 1 1 1h8v13Zm9-15H43v-11h16v11Z"/>
</svg>