<svg xmlns="http://www.w3.org/2000/svg" fill="none" viewBox="0 0 76 77">
    <path fill="#223843" d="M23.164 56.036a9.628 9.628 0 0 0 4.353-8.05c0-5.31-4.32-9.631-9.63-9.631-5.31 0-9.63 4.32-9.63 9.63a9.629 9.629 0 0 0 4.353 8.05C5.315 58.294 0 65.102 0 73.129a1.187 1.187 0 0 0 1.188 1.187h33.398a1.187 1.187 0 0 0 1.187-1.187c0-8.027-5.314-14.835-12.61-17.092Zm-12.533-8.05c0-4.001 3.255-7.256 7.256-7.256 4 0 7.255 3.255 7.255 7.255s-3.253 7.255-7.253 7.256h-.004c-4-.001-7.254-3.255-7.254-7.256ZM2.42 71.94c.608-8 7.312-14.323 15.465-14.324h.004c8.153 0 14.856 6.324 15.464 14.324H2.42Zm60.97-15.904a9.628 9.628 0 0 0 4.354-8.05c0-5.31-4.32-9.631-9.63-9.631-5.31 0-9.631 4.32-9.631 9.63a9.629 9.629 0 0 0 4.354 8.05c-7.296 2.258-12.61 9.066-12.61 17.093a1.187 1.187 0 0 0 1.187 1.187h33.398A1.188 1.188 0 0 0 76 73.128c0-8.027-5.315-14.835-12.61-17.092Zm-12.532-8.05c0-4.001 3.255-7.256 7.255-7.256 4.001 0 7.256 3.255 7.256 7.255s-3.254 7.255-7.254 7.256h-.004c-4-.001-7.253-3.255-7.253-7.256ZM42.647 71.94c.608-8 7.311-14.323 15.464-14.324h.004c8.153 0 14.857 6.324 15.465 14.324H42.647ZM8.794 23.685h2.989l4.017 9.087a1.187 1.187 0 0 0 2.172 0l4.017-9.087h32.022l4.017 9.087a1.187 1.187 0 0 0 2.172 0l4.017-9.087h2.99a4.161 4.161 0 0 0 4.156-4.156V6.272a4.161 4.161 0 0 0-4.157-4.156H8.794a4.161 4.161 0 0 0-4.156 4.156v13.257a4.161 4.161 0 0 0 4.156 4.156ZM7.013 6.272c0-.982.799-1.781 1.78-1.781h58.413c.983 0 1.781.799 1.781 1.781v13.257c0 .982-.798 1.781-1.78 1.781h-3.763a1.188 1.188 0 0 0-1.086.708l-3.244 7.337-3.244-7.337a1.187 1.187 0 0 0-1.086-.708H21.216a1.187 1.187 0 0 0-1.086.708l-3.244 7.337-3.244-7.337a1.187 1.187 0 0 0-1.086-.708H8.794a1.783 1.783 0 0 1-1.781-1.78V6.271Zm7.385 6.628a1.187 1.187 0 0 1 1.188-1.187H29.62a1.187 1.187 0 0 1 0 2.375H15.586a1.188 1.188 0 0 1-1.188-1.188Zm37.246 0a1.187 1.187 0 0 1 1.188-1.187h7.582a1.188 1.188 0 0 1 0 2.375h-7.582a1.187 1.187 0 0 1-1.188-1.188Zm-16.306 0a1.187 1.187 0 0 1 1.188-1.187h10.123a1.188 1.188 0 0 1 0 2.375H36.526a1.188 1.188 0 0 1-1.188-1.188Z"/>
</svg>