<svg xmlns="http://www.w3.org/2000/svg" fill="none" viewBox="0 0 49 69">
    <path fill="#C97D02" d="M29.753 62.772h-8.337a.716.716 0 0 0-.714.71.71.71 0 0 0 .714.712h8.337a.716.716 0 0 0 .714-.711.71.71 0 0 0-.714-.711Z"/>
    <path fill="#C97D02" d="M47.826 30.023H46.24V3.334a3.307 3.307 0 0 0-.977-2.348 3.338 3.338 0 0 0-2.359-.973H8.144c-.885 0-1.734.35-2.36.973a3.314 3.314 0 0 0-.977 2.348v5.924H1.093a.716.716 0 0 0-.715.711v24.18a.71.71 0 0 0 .715.71h3.714v6.35H.978a.716.716 0 0 0-.714.712v11.25a.71.71 0 0 0 .714.712h3.83v11.08c0 .88.35 1.725.976 2.348a3.344 3.344 0 0 0 2.36.972h34.76a3.35 3.35 0 0 0 2.36-.972 3.32 3.32 0 0 0 .976-2.349v-22.23h1.586a.716.716 0 0 0 .715-.711V30.735a.71.71 0 0 0-.715-.712ZM6.236 3.334c.002-.503.204-.985.56-1.34a1.919 1.919 0 0 1 1.347-.559h34.761c.506.002.99.203 1.347.559.357.355.559.837.56 1.34V4.65a3.267 3.267 0 0 0-1.907-.605H8.144a3.268 3.268 0 0 0-1.908.605V3.334ZM1.807 10.68h18.895v10.831l-2.322-2.297a.717.717 0 0 0-1.014 0l-2.143 2.134-3.986-4.018a.716.716 0 0 0-1.008 0l-8.422 8.39V10.68Zm18.895 16.05-4.465-4.415 1.615-1.608 2.857 2.845-.007 3.179ZM1.807 33.438v-5.69l8.937-8.889 9.958 9.886v4.693H1.807ZM1.693 52.49v-9.885h19.13v9.856l-19.13.029Zm43.119 12.473a1.901 1.901 0 0 1-.561 1.34 1.919 1.919 0 0 1-1.347.559H8.144a1.919 1.919 0 0 1-1.347-.558 1.902 1.902 0 0 1-.56-1.34V59.75c.558.39 1.224.6 1.906.598h34.761a3.317 3.317 0 0 0 1.908-.598v5.213Zm0-7.936a1.894 1.894 0 0 1-.561 1.338 1.912 1.912 0 0 1-1.347.553H8.144c-.505 0-.99-.199-1.347-.553a1.895 1.895 0 0 1-.56-1.338v-3.144h15.3a.716.716 0 0 0 .715-.71v-11.28a.71.71 0 0 0-.714-.71H6.236V34.86h15.18a.716.716 0 0 0 .715-.71V9.968a.71.71 0 0 0-.715-.71H6.236v-1.9c.002-.502.204-.983.561-1.338a1.912 1.912 0 0 1 1.346-.553h34.761c.505 0 .989.199 1.346.553.358.355.56.836.562 1.338v22.664H27.267a.716.716 0 0 0-.714.712V42.02a.71.71 0 0 0 .714.71h17.545v14.295Zm2.3-15.717h-19.13v-9.863h19.13v9.863Z"/>
    <path fill="#C97D02" d="M34.218 21.113c.8 0 1.584-.236 2.25-.68a4.036 4.036 0 0 0 1.492-1.809 4.016 4.016 0 0 0-.878-4.394 4.057 4.057 0 0 0-4.414-.874 4.045 4.045 0 0 0-1.818 1.485 4.019 4.019 0 0 0-.683 2.24 4.03 4.03 0 0 0 1.189 2.85 4.067 4.067 0 0 0 2.862 1.182Zm0-6.642a2.63 2.63 0 0 1 1.456.44 2.599 2.599 0 0 1 .397 4.016 2.626 2.626 0 0 1-2.857.565 2.62 2.62 0 0 1-1.176-.961 2.601 2.601 0 0 1 .326-3.295 2.628 2.628 0 0 1 1.854-.765Z"/>
    <path fill="#C97D02" d="M29.931 24.782v-.647h8.573v.647a.71.71 0 0 0 .714.711h2.736a.716.716 0 0 0 .715-.711v-2.724a.71.71 0 0 0-.715-.71h-.657v-8.534h.657a.716.716 0 0 0 .715-.712V9.38a.71.71 0 0 0-.715-.712h-2.736a.716.716 0 0 0-.714.712v.647h-8.572V9.38a.71.71 0 0 0-.715-.712h-2.743a.716.716 0 0 0-.714.712v2.723a.71.71 0 0 0 .714.711h.657v8.534h-.657a.716.716 0 0 0-.714.711v2.724a.71.71 0 0 0 .714.711h2.743a.716.716 0 0 0 .715-.711Zm11.309-.711h-1.307v-1.302h1.307v1.302Zm0-13.981v1.301h-1.307V10.09h1.307Zm-14.052 0h1.315v1.301h-1.315V10.09Zm1.372 2.723h.657a.716.716 0 0 0 .715-.71v-.655h8.572v.654a.71.71 0 0 0 .714.711h.65v8.534h-.65a.716.716 0 0 0-.714.711v.655h-8.572v-.655a.71.71 0 0 0-.715-.71h-.657v-8.534Zm-1.372 11.258v-1.302h1.315v1.302h-1.315ZM8.38 30.706h5.715a.716.716 0 0 0 .715-.711.71.71 0 0 0-.715-.711H8.38a.716.716 0 0 0-.714.71.71.71 0 0 0 .714.712Zm35.854 2.83H30.867a.716.716 0 0 0-.714.711.71.71 0 0 0 .714.712h13.366a.716.716 0 0 0 .714-.712.71.71 0 0 0-.714-.71Zm-7.994 4.09h-5.372a.716.716 0 0 0-.714.71.71.71 0 0 0 .714.712h5.372a.716.716 0 0 0 .715-.712.71.71 0 0 0-.715-.71Zm7.994 0H39.54a.716.716 0 0 0-.715.71.71.71 0 0 0 .715.712h4.693a.716.716 0 0 0 .714-.712.71.71 0 0 0-.714-.71ZM4.572 46.108h13.365a.716.716 0 0 0 .715-.71.71.71 0 0 0-.715-.712H4.572a.716.716 0 0 0-.715.711.71.71 0 0 0 .715.711Zm5.372 4.09a.716.716 0 0 0 .714-.712.71.71 0 0 0-.714-.71H4.572a.716.716 0 0 0-.715.71.71.71 0 0 0 .715.711h5.372Zm7.993-1.423h-4.686a.716.716 0 0 0-.714.711.71.71 0 0 0 .714.711h4.686a.716.716 0 0 0 .715-.71.71.71 0 0 0-.715-.712Zm8.616 1.408v2.987a.71.71 0 0 0 .714.711.716.716 0 0 0 .714-.711v-.782h13.973v.782a.71.71 0 0 0 .715.711.716.716 0 0 0 .714-.711v-2.987a.71.71 0 0 0-.714-.711.716.716 0 0 0-.715.711v.782H27.981v-.782a.71.71 0 0 0-.714-.711.716.716 0 0 0-.714.711Z"/>
</svg>