<svg xmlns="http://www.w3.org/2000/svg" fill="none" viewBox="0 0 64 65">
    <path fill="#EFF1F3" d="M10 40.961c.5 2.55 2.75 4.4 5.35 4.4 2.6 0 4.85-1.85 5.35-4.4l.85-4.3c.45-3.45-2.2-6.55-5.7-6.55h-1c-3.5 0-6.15 3.1-5.7 6.55l.85 4.3Zm16.8 8.15-5.8-2.05-5.6 5.6-5.6-5.6-5.85 2.05c-.55.2-.95.65-1.05 1.2l-2 9.35h28.9l-2-9.35c-.1-.55-.45-1-1-1.2Zm15.6-12.45.85 4.3c.5 2.55 2.75 4.4 5.35 4.4 2.6 0 4.85-1.85 5.35-4.4l.85-4.3c.45-3.45-2.2-6.55-5.7-6.55h-1c-3.45 0-6.15 3.1-5.7 6.55Zm18.65 13.65c-.1-.55-.5-1-1.05-1.2l-5.8-2.05H43.05l-5.8 2.05c-.55.2-.95.65-1.05 1.2l-2 9.35h28.9l-2.05-9.35ZM17.9 25.761l5.65-1.05c1 1 2.3 1.75 3.7 2.1 4.35 1.2 8.9-1.55 9.85-6.05.9-4.05-1.5-8.2-5.5-9.4-4-1.25-8.15.8-9.75 4.45-.15.3-3.35 7.15-4.4 9.4-.15.3.1.65.45.55Z"/>
    <path fill="#EFF1F3" d="M30.6 9.511c1.4-1.75 3.6-2.85 6-2.7 1.9.1 3.6.95 4.85 2.4 1.25 1.4 1.85 3.25 1.75 5.1-.1 1.25-.5 2.5-1.2 3.55l-.3.4 1.9 4.75c-1.4-.35-3.4-.85-5.1-1.3-.2.65-.45 1.25-.75 1.85 1.75.45 6.5 1.65 8.35 2.1.3.1.6-.25.45-.55l-2.65-6.65c.75-1.25 1.15-2.6 1.25-4.05a8.99 8.99 0 0 0-2.25-6.55c-1.6-1.8-3.8-2.9-6.2-3.05-3.6-.2-6.8 1.7-8.45 4.6.8 0 1.55 0 2.35.1Z"/>
</svg>