<svg xmlns="http://www.w3.org/2000/svg" fill="none" viewBox="0 0 64 65">
    <path fill="#EFF1F3" d="M24 19.261c.6 0 1-.4 1-1v-2c0-5.9 5.2-11.1 7-12.7.8.7 2.2 2.1 3.5 3.8.3.4 1 .5 1.4.2.4-.3.5-1 .2-1.4-2.2-2.9-4.4-4.7-4.5-4.7-.4-.3-.9-.3-1.2 0-.4.3-8.4 6.7-8.4 14.8v2c0 .6.4 1 1 1Z"/>
    <path fill="#EFF1F3" d="M32 9.261c-.9 0-1.7.2-2.5.7-.5.3-.6.9-.4 1.4.3.5.9.6 1.4.4.5-.3 1-.4 1.5-.4 1.7 0 3 1.3 3 3s-1.3 3-3 3-3-1.3-3-3c0-.6-.4-1-1-1s-1 .4-1 1c0 2.8 2.2 5 5 5s5-2.2 5-5-2.2-5.1-5-5.1Zm18 6c.6 0 1-.4 1-1s-.4-1-1-1-1-.4-1-1 .4-1 1-1 1-.4 1-1 .4-1 1-1h.1c.5.2 1.1.1 1.3-.4.5-1 1.5-1.6 2.6-1.6 1.7 0 3 1.3 3 3 0 .6.4 1 1 1s1 .4 1 1-.4 1-1 1h-6c-.6 0-1 .4-1 1s.4 1 1 1h6c1.7 0 3-1.3 3-3 0-1.3-.9-2.5-2.1-2.9-.4-2.3-2.4-4.1-4.9-4.1-1.6 0-3.1.7-4 2-1.4 0-2.5.9-2.9 2.1-1.2.4-2.1 1.5-2.1 2.9 0 1.7 1.3 3 3 3Zm-35 13c0 1.7 1.3 3 3 3h10c1.7 0 3-1.3 3-3 0-1.3-.9-2.5-2.1-2.9-.4-2.3-2.4-4.1-4.9-4.1-.6 0-1 .4-1 1s.4 1 1 1c1.7 0 3 1.3 3 3 0 .6.4 1 1 1s1 .4 1 1-.4 1-1 1H18c-.6 0-1-.4-1-1s.4-1 1-1 1-.4 1-1 .4-1 1-1h.1c.5.2 1.1 0 1.3-.4.2-.5 0-1.1-.4-1.3-.5-.3-.7-.3-1-.3-1.4 0-2.5.9-2.9 2.1-1.2.4-2.1 1.5-2.1 2.9Zm-11-17h6.1c.6 0 1-.4 1-1s-.4-1-1-1H4c-.6 0-1-.4-1-1s.4-1 1-1 1-.4 1-1 .4-1 1-1h.1c.5.2 1.1.1 1.3-.4.5-1 1.5-1.6 2.6-1.6 1.7 0 3 1.3 3 3 0 .6.4 1 1 1s1 .4 1 1-.4 1-1 1-1 .4-1 1 .4 1 1 1c1.7 0 3-1.3 3-3 0-1.3-.9-2.5-2.1-2.9-.4-2.3-2.4-4.1-4.9-4.1-1.6 0-3.1.7-4 2-1.3 0-2.5.9-2.9 2.1-1.2.4-2.1 1.5-2.1 2.9 0 1.7 1.3 3 3 3Z"/>
    <path fill="#EFF1F3" d="M40.3 53.26c.4 0 .8-.3.9-.7.7-2 2.6-3.3 4.8-3.3.7 0 1.3.2 1.9.4.3.1.5 0 .8-.1.2-.1.4-.3.5-.6.6-2.2 2.6-3.7 4.8-3.7 1.2 0 2.4.5 3.4 1.3.4.4 1 .3 1.4-.1.4-.4.3-1-.1-1.4-1.3-1.2-3-1.8-4.7-1.8-2.8 0-5.3 1.7-6.4 4.2-.5-.1-1-.2-1.6-.2-2.8 0-5.2 1.6-6.4 4-.9.1-1.8.3-2.6.8v-1.5l3.5-5.3H46c.6 0 1-.4 1-1v-4c0-.3-.2-.6-.4-.8l-5.6-3.7v-19.5c0-1.9-.5-3.9-1.3-5.8-.2-.5-.8-.7-1.3-.5-.5.2-.7.8-.5 1.3.8 1.7 1.2 3.4 1.2 5v27h-6v-7c0-.6-.4-1-1-1s-1 .4-1 1v7h-6v-9.2c0-.6-.4-1-1-1s-1 .4-1 1v1.7l-5.6 3.7c-.3.2-.5.5-.5.8v4c0 .6.4 1 1 1h5.5l3.5 5.3v1.4c-.8-.4-1.7-.7-2.6-.7-1.2-2.4-3.7-4-6.4-4-.6 0-1.1 0-1.6.2-1.1-2.5-3.6-4.2-6.4-4.2-3.9 0-7 3.1-7 7 0 .5.1 1 .2 1.4v.2c.1.5.6.9 1.2.8.5-.1.9-.6.8-1.2v-.2c-.1-.4-.2-.7-.2-1 0-2.8 2.2-5 5-5 2.2 0 4.2 1.5 4.8 3.7.1.3.3.5.5.6.3.1.6.1.8 0 .5-.2 1.1-.3 1.8-.3 2.1 0 4 1.4 4.8 3.4.1.4.5.6.9.6h.2c1.3 0 2.5.5 3.4 1.4.2.2.4.3.7.3.1 0 .3 0 .4-.1.4-.2.6-.5.6-.9v-2.7h6v2.7c0 .4.2.8.6.9.4.2.8.1 1.1-.2.7-.7 1.9-1.4 3.4-1.4h.3Zm.7-15.1 4 2.7v2.4h-4v-5.1Zm-18 5.1h-4v-2.5l4-2.7v5.2Zm12.5 6h-6.9l-2.7-4h12.3l-2.7 4Zm-7.4 12H8c-2.8 0-5-2.2-5-5 0-.4.1-.8.2-1.2.1-.5-.2-1.1-.7-1.2-.5-.1-1.1.2-1.2.7-.2.5-.3 1.1-.3 1.7 0 3.9 3.1 7 7 7h20.1c.6 0 1-.4 1-1s-.5-1-1-1Zm5.6 0H32c-.6 0-1 .4-1 1s.4 1 1 1h1.7c.6 0 1-.4 1-1s-.4-1-1-1Zm26.7-10.4c-.4-.3-1.1-.3-1.4.2-.3.4-.3 1.1.2 1.4 1.2.9 1.8 2.3 1.8 3.8 0 2.8-2.2 5-5 5H38.1c-.6 0-1 .4-1 1s.4 1 1 1H56c3.9 0 7-3.1 7-7 0-2.1-.9-4.1-2.6-5.4Z"/>
    <path fill="#EFF1F3" d="M9.5 59.261h6c.6 0 1-.4 1-1s-.4-1-1-1h-6c-1.1 0-2.1-.6-2.6-1.5-.3-.5-.9-.6-1.4-.4-.5.3-.6.9-.4 1.4.9 1.5 2.6 2.5 4.4 2.5Zm12 0c.6 0 1-.4 1-1s-.4-1-1-1h-2c-.6 0-1 .4-1 1s.4 1 1 1h2Zm14.5-30c-.6 0-1 .4-1 1v10c0 .6.4 1 1 1s1-.4 1-1v-10c0-.6-.4-1-1-1Zm1-5c0-.6-.4-1-1-1s-1 .4-1 1v2c0 .6.4 1 1 1s1-.4 1-1v-2Z"/>
</svg>