<svg xmlns="http://www.w3.org/2000/svg" fill="none" viewBox="0 0 83 81">
    <path fill="#045F8D" d="M41.98 36.961c-2.063 0-4.036.95-5.279 2.538-.422.55-.32 1.337.244 1.75.563.412 1.37.312 1.794-.238.768-.987 1.947-1.55 3.241-1.55s2.473.563 3.242 1.55c.256.325.64.488 1.025.488.269 0 .538-.088.768-.25.564-.413.667-1.2.244-1.75-1.243-1.588-3.216-2.538-5.279-2.538Z"/>
    <path fill="#045F8D" d="M41.98 31.724c-3.767 0-7.239 1.663-9.545 4.55a1.22 1.22 0 0 0 .23 1.75 1.292 1.292 0 0 0 1.794-.225c1.807-2.275 4.548-3.587 7.521-3.587s5.702 1.3 7.521 3.587a1.31 1.31 0 0 0 1.012.488c.27 0 .551-.088.782-.263a1.221 1.221 0 0 0 .23-1.75c-2.306-2.887-5.778-4.55-9.545-4.55Z"/>
    <path fill="#045F8D" d="M41.98 26.499c-5.445 0-10.48 2.4-13.825 6.588a1.229 1.229 0 0 0 .218 1.75 1.302 1.302 0 0 0 1.794-.213c2.857-3.575 7.15-5.625 11.8-5.625 4.651 0 8.943 2.05 11.8 5.625a1.31 1.31 0 0 0 1.013.487c.269 0 .55-.087.781-.262a1.22 1.22 0 0 0 .218-1.75c-3.344-4.187-8.38-6.587-13.825-6.587l.026-.013Z"/>
    <path fill="#045F8D" d="M75.293 62.749h-10.25c-.705 0-1.282.563-1.282 1.25v3.75H48.386v-3.75c0-.688-.576-1.25-1.28-1.25H43.26v-10H61.2c8.482 0 15.375-6.725 15.375-15 0-7.113-5.01-13.125-12.044-14.625C62.3 12.712 52.96 5.249 41.98 5.249s-20.32 7.462-22.55 17.875c-7.034 1.5-12.044 7.525-12.044 14.625 0 8.275 6.894 15 15.375 15H40.7v10h-3.844c-.705 0-1.281.563-1.281 1.25v3.75H20.199v-3.75c0-.688-.577-1.25-1.281-1.25H8.668c-.705 0-1.282.563-1.282 1.25v10c0 .688.577 1.25 1.282 1.25h10.25c.704 0 1.28-.563 1.28-1.25v-3.75h15.376v3.75c0 .688.576 1.25 1.281 1.25h10.25c.705 0 1.281-.563 1.281-1.25v-3.75h15.375v3.75c0 .688.577 1.25 1.282 1.25h10.25c.704 0 1.28-.563 1.28-1.25v-10c0-.688-.576-1.25-1.28-1.25Zm-57.657 10H9.95v-7.5h7.687v7.5Zm5.125-22.5c-7.06 0-12.812-5.613-12.812-12.5 0-6.175 4.536-11.35 10.788-12.325.538-.087.974-.5 1.063-1.025 1.679-9.65 10.16-16.65 20.193-16.65 10.032 0 18.514 7 20.192 16.65.09.525.513.938 1.064 1.025 6.252.975 10.788 6.163 10.788 12.325 0 6.887-5.753 12.5-12.813 12.5H22.761Zm23.063 22.5h-7.688v-7.5h7.688v7.5Zm28.187 0h-7.687v-7.5h7.687v7.5Z"/>
</svg>