
<svg xmlns="http://www.w3.org/2000/svg" fill="none" viewBox="0 0 78 76">
    <path fill="#BB4D2F" d="M74.744 24.26v-9.472a5.771 5.771 0 0 0-5.783-5.792H9.843a5.77 5.77 0 0 0-5.783 5.792V61.21a5.77 5.77 0 0 0 5.783 5.792H68.96a5.771 5.771 0 0 0 5.783-5.792V24.26ZM9.843 11.045H68.96c2.028 0 3.677 1.643 3.677 3.742v8.417H6.166v-8.417c0-2.1 1.65-3.742 3.677-3.742ZM68.96 64.953H9.843c-2.028 0-3.677-1.643-3.677-3.742V25.255h66.472v35.956c0 2.1-1.65 3.742-3.677 3.742Z"/>
    <path fill="#BB4D2F" d="M22.455 21.451c2.319 0 4.206-1.905 4.206-4.247 0-2.342-1.887-4.247-4.206-4.247-2.32 0-4.206 1.905-4.206 4.247 0 2.342 1.887 4.247 4.206 4.247Zm0-6.443c1.158 0 2.1.985 2.1 2.196 0 1.211-.942 2.197-2.1 2.197-1.158 0-2.1-.986-2.1-2.197 0-1.21.941-2.196 2.1-2.196Zm10.247 6.443c2.32 0 4.206-1.905 4.206-4.247 0-2.342-1.887-4.247-4.206-4.247-2.319 0-4.206 1.905-4.206 4.247 0 2.342 1.887 4.247 4.206 4.247Zm0-6.443c1.158 0 2.1.985 2.1 2.196 0 1.211-.942 2.197-2.1 2.197-1.158 0-2.1-.986-2.1-2.197 0-1.21.942-2.196 2.1-2.196ZM12.207 21.45c2.32 0 4.206-1.905 4.206-4.247 0-2.342-1.887-4.247-4.206-4.247-2.319 0-4.205 1.905-4.205 4.247 0 2.342 1.886 4.247 4.205 4.247Zm0-6.443c1.158 0 2.1.985 2.1 2.196 0 1.211-.941 2.197-2.1 2.197-1.158 0-2.1-.986-2.1-2.197 0-1.21.942-2.196 2.1-2.196Zm30.855 21.527h-7.57v-6.172a1.035 1.035 0 0 0-.337-.722 1.09 1.09 0 0 0-.76-.284H20.778c-.28-.005-.55.098-.752.286a1.017 1.017 0 0 0-.325.72v9.834h-3.709c-.286 0-.56.109-.766.302a1.066 1.066 0 0 0-.337.735v3.357h-1.701a1.01 1.01 0 0 0-.723.285.958.958 0 0 0-.284.707v12.944a.949.949 0 0 0 .283.712.999.999 0 0 0 .724.294h29.874a1.017 1.017 0 0 0 .722-.294.966.966 0 0 0 .28-.712V37.6c0-.566-.42-1.065-1.002-1.065Zm-9.675-5.127v26.074h-11.58V41.376c0-.046.01-.094.01-.142 0-.048-.01-.096-.01-.142v-9.684h11.58Zm-19.1 15.234h1.705c.582 0 1.002-.493 1.002-1.06v-3.334h2.707v15.234h-5.414v-10.84Zm27.672 10.84h-6.467V38.585h6.467v18.897Z"/>
    <path fill="#BB4D2F" d="M38.061 48.986h1.147c.279 0 .547-.108.744-.3a1.011 1.011 0 0 0 0-1.451 1.067 1.067 0 0 0-.744-.3H38.06c-.279 0-.547.108-.744.3a1.012 1.012 0 0 0-.309.726c0 .271.111.532.309.725.197.192.465.3.744.3Zm0 3.223h1.147c.279 0 .547-.109.744-.3a1.012 1.012 0 0 0 0-1.45 1.067 1.067 0 0 0-.744-.301H38.06c-.279 0-.547.108-.744.3a1.012 1.012 0 0 0-.309.725c0 .272.111.533.309.725.197.192.465.3.744.3Zm1.147 1.025H38.06c-.279 0-.547.108-.744.3a1.012 1.012 0 0 0-.309.725c0 .272.111.533.309.725.197.193.465.3.744.3h1.147c.279 0 .547-.107.744-.3a1.01 1.01 0 0 0 0-1.45 1.067 1.067 0 0 0-.744-.3Zm-8.98-9.07c.28 0 .547-.107.745-.3.197-.192.308-.453.308-.725v-2.005c0-.272-.11-.532-.308-.725a1.067 1.067 0 0 0-.745-.3c-.279 0-.547.108-.744.3a1.012 1.012 0 0 0-.308.725v2.005a1 1 0 0 0 .308.725 1.055 1.055 0 0 0 .744.3Zm-5.414 0c.28 0 .547-.107.745-.3.197-.192.308-.453.308-.725v-2.005c0-.272-.11-.532-.308-.725a1.067 1.067 0 0 0-.745-.3c-.279 0-.547.108-.744.3a1.012 1.012 0 0 0-.308.725v2.005a1.004 1.004 0 0 0 .308.725 1.056 1.056 0 0 0 .744.3Zm13.247-1.33h1.147c.279 0 .547-.109.744-.3a1.012 1.012 0 0 0 0-1.45 1.067 1.067 0 0 0-.744-.301H38.06c-.279 0-.547.108-.744.3a1.012 1.012 0 0 0-.309.725c0 .272.111.533.309.725.197.192.465.3.744.3Zm0 3.076h1.147c.279 0 .547-.108.744-.3a1.012 1.012 0 0 0 0-1.45 1.067 1.067 0 0 0-.744-.301H38.06c-.279 0-.547.108-.744.3a1.012 1.012 0 0 0-.309.725c0 .272.111.533.309.725.197.193.465.3.744.3Zm-7.833-7.045c.28 0 .547-.108.745-.3.197-.192.308-.453.308-.725v-2.005c0-.272-.11-.533-.308-.725a1.067 1.067 0 0 0-.745-.3c-.279 0-.547.108-.744.3a1.012 1.012 0 0 0-.308.725v2.005c0 .272.11.532.308.725.197.192.465.3.744.3Zm-5.414 0c.28 0 .547-.108.745-.3.197-.192.308-.453.308-.725v-2.005c0-.272-.11-.533-.308-.725a1.067 1.067 0 0 0-.745-.3c-.279 0-.547.108-.744.3a1.012 1.012 0 0 0-.308.725v2.005c0 .272.11.532.308.725.197.192.465.3.744.3Zm5.414 10.6c.28 0 .547-.109.745-.3.197-.193.308-.454.308-.726v-2.005c0-.271-.11-.532-.308-.725a1.067 1.067 0 0 0-.745-.3c-.279 0-.547.108-.744.3a1.012 1.012 0 0 0-.308.725v2.005c0 .272.11.533.308.725.197.192.465.3.744.3Zm-5.414 0c.28 0 .547-.109.745-.3.197-.193.308-.454.308-.726v-2.005c0-.271-.11-.532-.308-.725a1.067 1.067 0 0 0-.745-.3c-.279 0-.547.108-.744.3a1.012 1.012 0 0 0-.308.725v2.005c0 .272.11.533.308.725.197.192.465.3.744.3Zm5.414 5.3c.28 0 .547-.109.745-.301.197-.192.308-.453.308-.725v-2.005c0-.272-.11-.533-.308-.725a1.067 1.067 0 0 0-.745-.3c-.279 0-.547.108-.744.3a1.012 1.012 0 0 0-.308.725v2.005c0 .272.11.533.308.725.197.192.465.3.744.3Zm-5.414 0c.28 0 .547-.109.745-.301.197-.192.308-.453.308-.725v-2.005c0-.272-.11-.533-.308-.725a1.067 1.067 0 0 0-.745-.3c-.279 0-.547.108-.744.3a1.012 1.012 0 0 0-.308.725v2.005c0 .272.11.533.308.725.197.192.465.3.744.3Zm24.364-12.37h7.97c.28 0 .547-.109.745-.301a1.009 1.009 0 0 0 0-1.45 1.067 1.067 0 0 0-.745-.3h-7.97c-.28 0-.547.107-.745.3a1.012 1.012 0 0 0-.308.725c0 .272.11.532.308.725.198.192.465.3.745.3ZM65.72 45.91H49.478c-.279 0-.547.108-.744.3a1.012 1.012 0 0 0-.308.725c0 .272.11.533.308.725.197.193.465.3.744.3h16.243c.279 0 .546-.108.744-.3a1.009 1.009 0 0 0 0-1.45 1.067 1.067 0 0 0-.744-.3Zm0 5.713H49.478c-.279 0-.547.108-.744.3a1.012 1.012 0 0 0-.308.725c0 .272.11.533.308.725.197.192.465.3.744.3h16.243c.279 0 .546-.108.744-.3a1.009 1.009 0 0 0 0-1.45 1.067 1.067 0 0 0-.744-.3Zm0 5.566H49.478c-.279 0-.547.108-.744.3a1.012 1.012 0 0 0-.308.725c0 .272.11.533.308.726.197.192.465.3.744.3h16.243c.279 0 .546-.108.744-.3a1.012 1.012 0 0 0 0-1.451 1.067 1.067 0 0 0-.744-.3Z"/>
</svg>